<?xml version="1.0" encoding="UTF-8"?>
<svg width="155px" height="29px" viewBox="0 0 155 29" version="1.1" xmlns="http://www.w3.org/2000/svg" xmlns:xlink="http://www.w3.org/1999/xlink">
    <title>usw_lvl_logo_web</title>
    <defs>
        <linearGradient x1="27.6667087%" y1="2.4161192%" x2="90.6665739%" y2="87.9675343%" id="linearGradient-1">
            <stop stop-color="#03BCFF" offset="0%"></stop>
            <stop stop-color="#024FFF" offset="51%"></stop>
            <stop stop-color="#F900FF" offset="100%"></stop>
        </linearGradient>
    </defs>
    <g id="Page-1" stroke="none" stroke-width="1" fill="none" fill-rule="evenodd">
        <g id="usw_widget_main" transform="translate(-1189, -942)" fill-rule="nonzero">
            <g id="Group-15" transform="translate(848, 909)">
                <g id="usw_lvl_logo_web" transform="translate(341, 33)">
                    <g id="Group-2" transform="translate(38.361, 0)">
                        <g id="a-Level-Access-compa" transform="translate(0, 19.92)">
                            <path d="M2.50660676,1.75608884 C1.92104699,1.75608884 1.25330338,1.91103786 0.49310297,2.29324542 L0.862930197,3.04733063 C1.32521423,2.80974214 1.83886316,2.60314346 2.36278506,2.60314346 C3.42090185,2.60314346 3.7290912,3.31590892 3.7290912,3.98735466 L3.7290912,4.15263361 C3.21544228,3.97702472 2.65042846,3.86339544 2.12650656,3.86339544 C0.955387004,3.86339544 0,4.57616092 0,5.64014415 C0,6.68346752 0.832111261,7.34458331 1.9621389,7.34458331 C2.60933655,7.34458331 3.33871802,7.04501522 3.7290912,6.48719876 L3.7290912,7.2206241 L4.72557013,7.2206241 L4.72557013,3.98735466 C4.72557013,2.66512306 3.93455078,1.75608884 2.50660676,1.75608884 Z M2.1573255,6.53884843 C1.48958189,6.53884843 0.975932961,6.18763067 0.975932961,5.60915435 C0.975932961,5.03067802 1.57176572,4.62781059 2.28060123,4.62781059 C2.80452314,4.62781059 3.29762611,4.70012013 3.7290912,4.83440928 L3.7290912,5.54717474 C3.55445057,6.20829054 2.81479612,6.53884843 2.1573255,6.53884843 Z" id="Shape" fill="#525A6D"></path>
                            <polygon id="Path" fill="#050A16" points="9.87575671 5.84674283 9.87575671 0.123959212 8.35535589 0.123959212 8.35535589 7.2206241 13.3891154 7.2206241 13.3891154 5.84674283"></polygon>
                            <path d="M16.4881306,6.01202179 C15.8614789,6.01202179 15.3991949,5.61948428 15.2245542,5.04100795 L19.0563752,5.04100795 C19.0563752,3.02667077 18.0804423,1.75608884 16.4162197,1.75608884 C14.8649999,1.75608884 13.6836074,2.92337142 13.6836074,4.53484118 C13.6836074,6.17730074 14.9163648,7.34458331 16.4984035,7.34458331 C17.2791499,7.34458331 18.193445,7.01402541 18.666002,6.51818857 L17.710615,5.53684481 C17.4229717,5.81575304 16.9093226,6.01202179 16.4881306,6.01202179 Z M16.4778576,3.08865037 C17.0839633,3.08865037 17.4743365,3.4295382 17.6181582,3.95636485 L15.2451001,3.95636485 C15.4402867,3.41920827 15.9128438,3.08865037 16.4778576,3.08865037 Z" id="Shape" fill="#050A16"></path>
                            <polygon id="Path" fill="#050A16" points="21.5081927 7.2206241 22.8950448 7.2206241 25.1653731 1.88004805 23.6038803 1.88004805 22.2067553 5.48519514 20.7788113 1.88004805 19.2070455 1.88004805"></polygon>
                            <path d="M27.7918313,6.01202179 C27.1651796,6.01202179 26.7028956,5.61948428 26.528255,5.04100795 L30.3600759,5.04100795 C30.3600759,3.02667077 29.384143,1.75608884 27.7199204,1.75608884 C26.1687007,1.75608884 24.9873082,2.92337142 24.9873082,4.53484118 C24.9873082,6.17730074 26.2200656,7.34458331 27.8021043,7.34458331 C28.5828506,7.34458331 29.4971457,7.01402541 29.9697028,6.51818857 L29.0143158,5.53684481 C28.7266723,5.81575304 28.2130234,6.01202179 27.7918313,6.01202179 Z M27.7815583,3.08865037 C28.387664,3.08865037 28.7780372,3.4295382 28.9218589,3.95636485 L26.5488009,3.95636485 C26.7439875,3.41920827 27.2165445,3.08865037 27.7815583,3.08865037 Z" id="Shape" fill="#050A16"></path>
                            <polygon id="Path" fill="#050A16" points="31.0346682 7.2206241 32.5345231 7.2206241 32.5345231 0 31.0346682 0"></polygon>
                            <path d="M41.2391602,7.2206241 L42.9444746,7.2206241 L40.0680406,0.123959212 L38.3729992,0.123959212 L35.4965652,7.2206241 L37.1916066,7.2206241 L37.6436177,6.10499119 L40.7871492,6.10499119 L41.2391602,7.2206241 Z M38.1675397,4.8137494 L39.2153834,2.22093589 L40.2632272,4.8137494 L38.1675397,4.8137494 Z" id="Shape" fill="#050A16"></path>
                            <path d="M45.9921249,7.34458331 C46.8756011,7.34458331 47.5947096,6.98303562 48.1186315,6.40455929 L47.1221526,5.55750468 C46.8447821,5.86740271 46.4133171,6.0740014 46.0023979,6.0740014 C45.2113786,6.0740014 44.5539079,5.37156586 44.5539079,4.53484118 C44.5539079,3.71877637 45.2113786,3.02667077 45.9921249,3.02667077 C46.403044,3.02667077 46.8242362,3.22293951 47.0913336,3.52250761 L48.0878126,2.66512306 C47.5741637,2.1073066 46.8653282,1.75608884 46.0023979,1.75608884 C44.4306322,1.75608884 43.0951449,3.02667077 43.0951449,4.54517111 C43.0951449,6.06367145 44.4203592,7.34458331 45.9921249,7.34458331 Z" id="Path" fill="#050A16"></path>
                            <path d="M51.2792846,7.34458331 C52.1627608,7.34458331 52.8818692,6.98303562 53.4057911,6.40455929 L52.4093122,5.55750468 C52.1319418,5.86740271 51.7004767,6.0740014 51.2895576,6.0740014 C50.4985382,6.0740014 49.8410676,5.37156586 49.8410676,4.53484118 C49.8410676,3.71877637 50.4985382,3.02667077 51.2792846,3.02667077 C51.6902037,3.02667077 52.1113959,3.22293951 52.3784933,3.52250761 L53.3749722,2.66512306 C52.8613232,2.1073066 52.1524877,1.75608884 51.2895576,1.75608884 C49.7177918,1.75608884 48.3823046,3.02667077 48.3823046,4.54517111 C48.3823046,6.06367145 49.7075189,7.34458331 51.2792846,7.34458331 Z" id="Path" fill="#050A16"></path>
                            <path d="M56.4739874,6.01202179 C55.8473357,6.01202179 55.3850517,5.61948428 55.210411,5.04100795 L59.042232,5.04100795 C59.042232,3.02667077 58.0662991,1.75608884 56.4020766,1.75608884 C54.8508567,1.75608884 53.6694643,2.92337142 53.6694643,4.53484118 C53.6694643,6.17730074 54.9022217,7.34458331 56.4842604,7.34458331 C57.2650067,7.34458331 58.1793019,7.01402541 58.6518588,6.51818857 L57.6964718,5.53684481 C57.4088285,5.81575304 56.8951796,6.01202179 56.4739874,6.01202179 Z M56.4637144,3.08865037 C57.0698201,3.08865037 57.4601933,3.4295382 57.6040151,3.95636485 L55.230957,3.95636485 C55.4261435,3.41920827 55.8987006,3.08865037 56.4637144,3.08865037 Z" id="Shape" fill="#050A16"></path>
                            <path d="M61.7097821,7.34458331 C63.0144504,7.34458331 63.8671077,6.67313759 63.8671077,5.61948428 C63.8671077,4.4522017 62.8500828,4.14230368 61.9357876,3.90471518 C61.2166792,3.70844642 61.0009466,3.62580696 61.0009466,3.33656879 C61.0009466,3.15062997 61.2577711,3.01634082 61.6275982,3.01634082 C62.0796094,3.01634082 62.6343502,3.19194971 63.1171802,3.4915178 L63.7232859,2.41720463 C63.1377261,2.02466713 62.3877987,1.75608884 61.6275982,1.75608884 C60.3742949,1.75608884 59.5421837,2.47918424 59.5524566,3.4915178 C59.5627296,4.54517111 60.4051138,4.84473921 61.4940495,5.1133175 C62.0385174,5.25793658 62.4288906,5.36123592 62.4288906,5.69179383 C62.4288906,5.92938231 62.1412473,6.09466126 61.740601,6.09466126 C61.0317655,6.09466126 60.4359328,5.8364129 59.9633757,5.49552507 L59.3161781,6.53884843 C59.9531028,7.05534515 60.8571249,7.34458331 61.7097821,7.34458331 Z" id="Path" fill="#050A16"></path>
                            <path d="M66.5243847,7.34458331 C67.829053,7.34458331 68.6817102,6.67313759 68.6817102,5.61948428 C68.6817102,4.4522017 67.6646854,4.14230368 66.7503903,3.90471518 C66.0312817,3.70844642 65.8155492,3.62580696 65.8155492,3.33656879 C65.8155492,3.15062997 66.0723737,3.01634082 66.4422009,3.01634082 C66.894212,3.01634082 67.4489529,3.19194971 67.9317828,3.4915178 L68.5378886,2.41720463 C67.9523287,2.02466713 67.2024014,1.75608884 66.4422009,1.75608884 C65.1888975,1.75608884 64.3567863,2.47918424 64.3670592,3.4915178 C64.3773322,4.54517111 65.2197164,4.84473921 66.3086522,5.1133175 C66.85312,5.25793658 67.2434932,5.36123592 67.2434932,5.69179383 C67.2434932,5.92938231 66.9558499,6.09466126 66.5552036,6.09466126 C65.8463681,6.09466126 65.2505354,5.8364129 64.7779784,5.49552507 L64.1307807,6.53884843 C64.7677054,7.05534515 65.6717276,7.34458331 66.5243847,7.34458331 Z" id="Path" fill="#050A16"></path>
                            <path d="M74.5304593,7.34458331 C75.3214787,7.34458331 76.0097682,7.01402541 76.5234172,6.48719876 L75.8351276,5.85707278 C75.5063923,6.22895041 75.0338353,6.45620896 74.5407323,6.45620896 C73.5647994,6.45620896 72.763507,5.58849448 72.763507,4.54517111 C72.763507,3.51217768 73.5647994,2.6444632 74.5304593,2.6444632 C75.0235623,2.6444632 75.4858464,2.86139182 75.8043087,3.22293951 L76.4925983,2.58248358 C75.9892223,2.0763168 75.3009327,1.75608884 74.5407323,1.75608884 C73.0203315,1.75608884 71.7362092,3.02667077 71.7362092,4.54517111 C71.7362092,6.06367145 73.0203315,7.34458331 74.5304593,7.34458331 Z" id="Path" fill="#525A6D"></path>
                            <path d="M79.6737972,7.34458331 C81.1839251,7.34458331 82.4577744,6.06367145 82.4577744,4.54517111 C82.4577744,3.02667077 81.1839251,1.75608884 79.6737972,1.75608884 C78.1533965,1.75608884 76.8692741,3.02667077 76.8692741,4.54517111 C76.8692741,6.06367145 78.1533965,7.34458331 79.6737972,7.34458331 Z M79.6737972,6.45620896 C78.6978643,6.45620896 77.886299,5.58849448 77.886299,4.54517111 C77.886299,3.51217768 78.6978643,2.6444632 79.6737972,2.6444632 C80.6291842,2.6444632 81.4407496,3.51217768 81.4407496,4.54517111 C81.4407496,5.58849448 80.6291842,6.45620896 79.6737972,6.45620896 Z" id="Shape" fill="#525A6D"></path>
                            <path d="M89.2447889,1.75608884 C88.4434966,1.75608884 87.76548,2.16928622 87.5189285,2.83040201 C87.2107392,2.16928622 86.5840876,1.75608884 85.8136141,1.75608884 C85.1355976,1.75608884 84.5808567,2.09697667 84.3137593,2.62380332 L84.3137593,1.88004805 L83.2967344,1.88004805 L83.2967344,7.2206241 L84.3137593,7.2206241 L84.3137593,3.88405532 C84.3137593,3.15062997 84.8479541,2.6444632 85.6081545,2.6444632 C86.2758982,2.6444632 86.7381822,3.19194971 86.7381822,3.97702472 L86.7381822,7.2206241 L87.7346611,7.2206241 L87.7346611,3.88405532 C87.7346611,3.15062997 88.268856,2.6444632 89.0290564,2.6444632 C89.6968,2.6444632 90.1590841,3.19194971 90.1590841,3.97702472 L90.1590841,7.2206241 L91.1555629,7.2206241 L91.1555629,3.82207571 C91.1555629,2.61347339 90.3542707,1.75608884 89.2447889,1.75608884 Z" id="Path" fill="#525A6D"></path>
                            <path d="M95.2202382,1.75608884 C94.3983999,1.75608884 93.7409293,2.14862634 93.3300101,2.7994122 L93.3300101,1.88004805 L92.3232582,1.88004805 L92.3232582,8.99737281 L93.3300101,8.99737281 L93.3300101,6.29093002 C93.7409293,6.95204581 94.3983999,7.34458331 95.2202382,7.34458331 C96.6173632,7.34458331 97.665207,6.18763067 97.665207,4.54517111 C97.665207,2.91304149 96.6173632,1.75608884 95.2202382,1.75608884 Z M94.9736867,6.45620896 C94.0182997,6.45620896 93.3300101,5.66080402 93.3300101,4.54517111 C93.3300101,3.4295382 94.0182997,2.6444632 94.9736867,2.6444632 C95.9496196,2.6444632 96.6379092,3.4295382 96.6379092,4.54517111 C96.6379092,5.66080402 95.9496196,6.45620896 94.9736867,6.45620896 Z" id="Shape" fill="#525A6D"></path>
                            <path d="M100.784768,1.75608884 C100.199208,1.75608884 99.5314648,1.91103786 98.7712644,2.29324542 L99.1410916,3.04733063 C99.6033756,2.80974214 100.117025,2.60314346 100.640946,2.60314346 C101.699063,2.60314346 102.007253,3.31590892 102.007253,3.98735466 L102.007253,4.15263361 C101.493604,3.97702472 100.92859,3.86339544 100.404668,3.86339544 C99.2335484,3.86339544 98.2781614,4.57616092 98.2781614,5.64014415 C98.2781614,6.68346752 99.1102726,7.34458331 100.2403,7.34458331 C100.887498,7.34458331 101.616879,7.04501522 102.007253,6.48719876 L102.007253,7.2206241 L103.003732,7.2206241 L103.003732,3.98735466 C103.003732,2.66512306 102.212712,1.75608884 100.784768,1.75608884 Z M100.435487,6.53884843 C99.7677433,6.53884843 99.2540944,6.18763067 99.2540944,5.60915435 C99.2540944,5.03067802 99.8499271,4.62781059 100.558763,4.62781059 C101.082685,4.62781059 101.575788,4.70012013 102.007253,4.83440928 L102.007253,5.54717474 C101.832612,6.20829054 101.092958,6.53884843 100.435487,6.53884843 Z" id="Shape" fill="#525A6D"></path>
                            <path d="M106.832128,1.75608884 C106.11302,1.75608884 105.465823,2.12796648 105.14736,2.65479313 L105.14736,1.88004805 L104.130335,1.88004805 L104.130335,7.2206241 L105.14736,7.2206241 L105.14736,3.7600961 C105.229544,3.12997011 105.866468,2.6444632 106.606122,2.6444632 C107.325232,2.6444632 107.828607,3.20227965 107.828607,3.99768459 L107.828607,7.2206241 L108.825086,7.2206241 L108.825086,3.82207571 C108.825086,2.61347339 108.003248,1.75608884 106.832128,1.75608884 Z" id="Path" fill="#525A6D"></path>
                            <path d="M110.876258,9.08001229 C111.636458,9.06968235 112.201472,8.66681491 112.581572,7.70613102 L114.923811,1.88004805 L113.865695,1.88004805 L112.252837,6.09466126 L110.547522,1.88004805 L109.458587,1.88004805 L111.739188,7.25161391 L111.47209,7.81976029 C111.29745,8.12965832 111.071444,8.23295767 110.742709,8.23295767 C110.53725,8.23295767 110.300971,8.181308 110.095511,8.06767872 L109.869505,8.85275373 C110.146876,8.99737281 110.516703,9.08001229 110.876258,9.08001229 Z" id="Path" fill="#525A6D"></path>
                        </g>
                        <path d="M11.3665012,8.28501408 C11.4125785,8.70437322 11.3640193,9.12789711 11.2241689,9.52899538 C11.0843186,9.93009365 10.8559825,10.2999028 10.5538367,10.615143 C10.2515829,10.9303832 9.88199373,11.1841131 9.46837758,11.3603144 C9.05476145,11.5365157 8.60618272,11.6312373 8.15091361,11.6387125 C6.28591813,11.6387125 4.935326,10.239674 4.935326,8.28501408 L4.935326,2.81474436e-05 L0.337097243,2.81474436e-05 L0.337097243,8.48342745 C0.337097243,12.6111302 3.55268485,15.5183452 8.17238755,15.5183452 C12.7920903,15.5183452 16.0183609,12.6111302 16.0183609,8.48342745 L16.0183609,2.81474436e-05 L11.3665012,2.81474436e-05 L11.3665012,8.28501408 Z M24.8511642,5.96246714 C22.7515741,5.4848014 22.2338255,5.26054517 22.2338255,4.50982077 C22.2338255,3.94437473 22.7227622,3.53494693 23.7294476,3.53494693 C25.2522629,3.58439009 26.7225263,4.11224652 27.9382319,5.04611351 L30.0186142,2.05304047 C28.2621755,0.652186599 26.0755025,-0.0729085191 23.8444789,0.00579473601 C20.3451979,0.00579473601 18.0250412,1.9556492 18.0250412,4.93879088 C18.0250412,7.92203937 20.4985369,8.90673777 23.6911398,9.64763761 C25.7332144,10.1254101 26.2412511,10.232626 26.2412511,10.9539835 C26.2412511,11.6754478 25.646887,12.0069199 24.5059625,12.0069199 C22.724273,11.9801159 21.0053867,11.3331901 19.6356945,10.1741058 L17.3252498,12.9819004 C19.2785149,14.6621135 21.7658231,15.5629828 24.3238117,15.5166366 C28.0149554,15.5166366 30.3925198,13.6642801 30.3925198,10.4958601 C30.4213316,7.63936974 28.2833257,6.70336699 24.8511642,5.96246714 Z M33.0062975,15.5183452 L44.7672183,15.5183452 L44.7672183,11.6109474 L37.1230353,11.6109474 L37.1230353,9.55131421 L44.082642,9.55131421 L44.082642,5.64391652 L37.1230353,5.64391652 L37.1230353,3.90731905 L44.7672183,3.90731905 L44.7672183,2.81474436e-05 L33.0062975,2.81474436e-05 L33.0062975,15.5183452 Z M61.1125554,5.42179607 C61.1125554,2.23127077 58.5838101,2.81474436e-05 55.0083452,2.81474436e-05 L47.3806723,2.81474436e-05 L47.3806723,15.5183452 L51.8785454,15.5183452 L51.8785454,10.8638539 L53.2672296,10.8638539 L56.6354009,15.5183452 L61.755047,15.5183452 L57.9515699,10.2580417 C58.9095882,9.8457306 59.7208499,9.16655461 60.2833808,8.30594466 C60.8458037,7.44533471 61.1343531,6.44184152 61.1125554,5.42179607 L61.1125554,5.42179607 Z M54.6351951,6.86557899 L51.8785454,6.86557899 L51.8785454,3.99819622 L54.6351951,3.99819622 C55.6715554,3.99819622 56.4696522,4.60400839 56.4696522,5.44197913 C56.4696522,6.28005667 55.7027412,6.88576204 54.6351951,6.88576204 L54.6351951,6.86557899 Z M80.0868854,12.5600852 L75.8363403,2.81474436e-05 L73.8098047,2.81474436e-05 L69.5482528,12.5600852 L65.1091901,2.81474436e-05 L63.0620438,2.81474436e-05 L68.54556,15.5183452 L70.3420331,15.5183452 L74.8338634,2.30196487 L79.2937525,15.5183452 L81.0893624,15.5183452 L86.5841012,2.81474436e-05 L84.5262718,2.81474436e-05 L80.0868854,12.5600852 Z M99.0195626,8.19894241 L98.7756877,7.64289376 L95.3873374,2.81474436e-05 L93.4611574,2.81474436e-05 L86.5841012,15.5183452 L88.5113603,15.5183452 L90.0825188,11.9900472 L98.7756877,11.9900472 L100.337134,15.5183452 L102.264394,15.5183452 L99.9626894,10.3118632 L99.0195626,8.19894241 Z M90.8033526,10.3320462 L94.4344987,2.17360488 L98.0451421,10.3320462 L90.8033526,10.3320462 Z M114.513172,2.81474436e-05 L109.46194,7.5219022 L104.461426,2.81474436e-05 L102.265473,2.81474436e-05 L108.541474,9.18780556 L108.541474,15.5183452 L110.393197,15.5183452 L110.393197,9.18780556 L116.638985,2.81474436e-05 L114.513172,2.81474436e-05 Z" id="Combined-Shape" fill="#050A16"></path>
                    </g>
                    <g id="Group-3" fill="url(#linearGradient-1)">
                        <path d="M13.5764577,22.2635961 C11.2578837,22.2605359 9.03518191,21.340571 7.39573768,19.7054442 C5.75629344,18.0703173 4.83393125,15.8533857 4.83094557,13.5408794 L4.83094557,6.31910845 C4.82794809,5.44116351 4.4761809,4.60017724 3.85271697,3.98047217 C3.22925305,3.36076711 2.38493154,3.01283772 1.50472288,3.01283772 L0,3.01283772 L0,0 L1.50472288,0 C2.33672404,0 3.16059425,0.163371441 3.92927071,0.480933506 C4.69794717,0.798495571 5.39638348,1.26401002 5.98470373,1.85075831 C6.57302398,2.4376243 7.03971028,3.13418928 7.35810397,3.9009051 C7.67649766,4.66750323 7.84037953,5.48918624 7.84037953,6.31910845 L7.84037953,13.5408794 C7.84037953,15.0581858 8.44471387,16.5134628 9.52041956,17.5863236 C10.596137,18.6591843 12.0551778,19.2619401 13.5764577,19.2619401 C15.0977376,19.2619401 16.5567075,18.6591843 17.6323778,17.5863236 C18.7081661,16.5134628 19.3125004,15.0581858 19.3125004,13.5408794 L19.3125004,6.31910845 C19.3125004,4.64313875 19.9799707,3.03590747 21.1681054,1.85075831 C22.3562401,0.66572685 23.9677984,0 25.6481571,0 L27.1527974,0 L27.1527974,3.01283772 L25.6481571,3.01283772 C24.767913,3.01283772 23.9235443,3.36076711 23.3000922,3.98047217 C22.67664,4.60017724 22.3248493,5.44116351 22.321899,6.31910845 L22.321899,13.5408794 C22.3189487,15.8533857 21.3965747,18.0703173 19.7570479,19.7054442 C18.117639,21.340571 15.8949018,22.2605359 13.5764577,22.2635961 L13.5764577,22.2635961 Z M27.1527974,13.5408794 C27.1527974,17.1322263 25.722504,20.5764446 23.1764167,23.1157642 C20.6303293,25.6552013 17.1770913,27.0818766 13.5764577,27.0818766 C9.9757296,27.0818766 6.52251527,25.6552013 3.97643971,23.1157642 C1.43036415,20.5764446 0,17.1322263 0,13.5408794 L0,4.81828046 L1.05217193,4.81828046 C1.57336988,4.81828046 2.07357131,5.02320098 2.44423207,5.38866808 C2.81488102,5.75413517 3.02610891,6.25060544 3.03206847,6.77038086 L3.03206847,13.5408794 C3.03206847,16.3331422 4.14418054,19.0109978 6.1237443,20.9853441 C8.10331984,22.9598079 10.7881882,24.0690388 13.5876687,24.0690388 C16.3872437,24.0690388 19.072112,22.9598079 21.0517466,20.9853441 C23.0312631,19.0109978 24.1433988,16.3331422 24.1433988,13.5408794 L24.1433988,6.77038086 C24.1433988,6.24672125 24.3519243,5.74448354 24.7233048,5.37407293 C25.0945675,5.00378003 25.5982384,4.79568154 26.1232694,4.79568154 L27.1527974,4.79568154 L27.1527974,13.5408794 Z" id="Shape"></path>
                    </g>
                </g>
            </g>
        </g>
    </g>
</svg>